<svg width="180" height="58" viewBox="0 0 180 58" fill="none" xmlns="http://www.w3.org/2000/svg">
<path d="M12.757 39.4185C12.7273 39.6411 12.4005 40.8136 11.7766 42.9359C11.1675 45.0582 10.655 46.7427 10.2391 47.9892C9.30323 50.7795 8.53077 52.5158 7.92172 53.1985C7.43151 53.7329 6.83731 54 6.13912 54C5.29239 54 4.64619 53.5845 4.20054 52.7532C4.06685 52.5158 4 52.2487 4 51.952C4 51.6699 4.22283 51.0466 4.66847 50.0819C5.84202 47.6331 7.40922 42.8098 9.37008 35.6117C10.1574 32.7622 10.6773 30.8255 10.9299 29.8014L11.6429 27.0187C12.1034 25.1783 12.3708 23.9318 12.4451 23.2787C12.5342 22.6109 12.4971 22.1434 12.3336 21.8762C12.1703 21.5942 11.9846 21.3865 11.7766 21.2529C11.5686 21.1045 11.3755 20.9783 11.1973 20.8744C11.019 20.7705 10.9447 20.585 10.9744 20.3179C11.0041 20.0359 11.123 19.7836 11.3309 19.561C11.5538 19.3235 11.8286 19.1232 12.1554 18.9599C12.8239 18.6483 13.4923 18.4924 14.1608 18.4924C14.8441 18.4924 15.3789 18.5741 15.7652 18.7373C16.1514 18.9006 16.4708 19.1232 16.7233 19.4052C17.2581 19.984 17.4958 20.5479 17.4364 21.0971C17.2878 22.2398 17.1244 23.2194 16.9461 24.0357C19.5458 20.3402 22.2418 18.4924 25.0347 18.4924C27.5748 18.4924 29.2758 19.8059 30.1374 22.4328C30.4344 23.3529 30.5831 24.4734 30.5831 25.7942C30.5831 27.1152 30.3825 28.4435 29.9815 29.7792C29.5803 31.1 29.0382 32.3542 28.3548 33.5415C27.6714 34.7288 26.8768 35.827 25.9706 36.8361C25.0643 37.8305 24.1062 38.6987 23.0962 39.4407C20.957 40.9842 18.9367 41.756 17.0353 41.756C15.1338 41.756 13.7077 40.9768 12.757 39.4185ZM16.1885 29.9349C15.6538 30.9739 15.2155 32.0128 14.8739 33.0517C14.5471 34.0905 14.3836 35.0403 14.3836 35.9012C14.3836 36.762 14.5693 37.4744 14.9407 38.0384C15.3121 38.5874 15.8617 38.8621 16.5896 38.8621C17.3175 38.8621 18.038 38.6691 18.751 38.2832C19.4789 37.8824 20.1771 37.3482 20.8456 36.6803C21.5289 36.0126 22.1602 35.2333 22.7396 34.3427C23.3338 33.4376 23.8463 32.4803 24.2771 31.471C25.213 29.2746 25.6808 27.1893 25.6808 25.2156C25.6808 24.147 25.5397 23.3159 25.2575 22.7223C24.9753 22.1285 24.5371 21.8317 23.9429 21.8317C23.3635 21.8317 22.7545 22.0617 22.1157 22.5218C21.4769 22.9671 20.8084 23.5682 20.1103 24.325C19.4121 25.067 18.7213 25.928 18.038 26.9074C17.3546 27.8721 16.7382 28.8812 16.1885 29.9349ZM51.1051 35.6117C51.1051 36.9772 51.5879 37.6598 52.5536 37.6598C53.222 37.6598 53.7717 37.5559 54.2024 37.3482C54.6481 37.1404 54.9453 37.0365 55.0938 37.0365C55.4058 37.0365 55.5617 37.1999 55.5617 37.5262C55.5617 38.8026 54.8932 39.9008 53.5563 40.821C52.145 41.7857 50.7041 42.0231 49.2335 41.5334C48.268 41.192 47.5549 40.4574 47.0944 39.3294C46.8716 38.7508 46.7601 38.2238 46.7601 37.7489C46.7601 36.9772 46.8343 36.1609 46.983 35.3002C45.6014 38.1199 43.8857 40.0642 41.8356 41.1328C41.0186 41.5482 40.1496 41.756 39.2285 41.756C38.3077 41.756 37.5055 41.5704 36.8221 41.1994C36.1537 40.8136 35.5818 40.2868 35.1064 39.6189C34.1409 38.2238 33.7026 36.4725 33.7918 34.3652C33.8807 31.7233 34.6607 29.1337 36.1313 26.5957C37.4832 24.2211 39.1915 22.2844 41.2562 20.7854C43.3212 19.2568 45.2523 18.4924 47.0497 18.4924C48.8472 18.4924 50.2957 19.3161 51.3949 20.9635C52.4198 19.3161 53.326 18.4924 54.1134 18.4924C54.9601 18.4924 55.5988 18.6483 56.0297 18.9599C56.8467 19.5536 57.1363 20.073 56.8986 20.5183C53.1701 28.1466 51.2538 32.8958 51.1498 34.7658C51.1201 35.0329 51.1051 35.315 51.1051 35.6117ZM38.7383 35.7008C38.7383 37.4818 39.3103 38.3721 40.4542 38.3721C41.3306 38.3721 42.4076 37.6301 43.6851 36.1461C45.5569 33.9643 47.2133 31.0259 48.6542 27.3303C49.1147 26.1728 49.5009 25.0152 49.8127 23.8575C49.7534 22.8484 49.3299 22.1063 48.5427 21.6313C48.2754 21.4681 47.8742 21.3865 47.3395 21.3865C46.8195 21.3865 46.203 21.5794 45.49 21.9653C44.7918 22.3511 44.1084 22.878 43.44 23.5458C42.7863 24.2137 42.1699 25.0078 41.5905 25.928C41.0262 26.8331 40.5284 27.82 40.0977 28.8888C39.1915 31.1743 38.7383 33.445 38.7383 35.7008ZM71.6943 36.6803C69.4363 40.0642 66.9333 41.756 64.1849 41.756C61.7043 41.756 60.0329 40.4352 59.1714 37.7933C58.8744 36.8881 58.7259 35.7751 58.7259 34.4541C58.7259 33.1332 58.9115 31.8124 59.2828 30.4915C59.669 29.1559 60.1891 27.8943 60.8426 26.707C61.4963 25.5197 62.2612 24.4289 63.1378 23.4346C64.029 22.4254 64.9797 21.5571 65.99 20.8299C68.0992 19.2716 70.1939 18.4924 72.2737 18.4924C74.3533 18.4924 75.8389 19.4645 76.7301 21.4087C76.9082 21.2158 77.0717 21.0228 77.2203 20.8299C77.3688 20.6221 77.5323 20.4292 77.7104 20.2511C78.0966 19.8652 78.4309 19.6723 78.7133 19.6723C79.0103 19.6723 79.3149 19.7242 79.6267 19.8281C79.9536 19.932 80.2656 20.073 80.5626 20.2511C81.2905 20.6815 81.5654 21.0822 81.3871 21.4533C80.57 23.2194 79.8868 24.9557 79.3371 26.6626L76.0393 37.17C73.4396 45.1397 70.142 50.2897 66.1459 52.6197C65.0912 53.2432 64.1775 53.5994 63.4052 53.6883C62.6326 53.7922 62.0757 53.7996 61.734 53.7107C61.3923 53.6216 61.0877 53.4954 60.8203 53.3321C60.241 52.9611 59.9514 52.6271 59.9514 52.3304C59.9514 51.811 60.2931 51.4919 60.9763 51.3731C61.6745 51.2544 62.4023 50.9725 63.1601 50.5272C63.9176 50.0967 64.638 49.57 65.3214 48.9465C68.1291 46.3494 70.2532 42.2606 71.6943 36.6803ZM65.0094 28.9555C64.6232 30.024 64.3188 31.1222 64.0959 32.2503C63.8731 33.3633 63.7617 34.2761 63.7617 34.9884C63.7617 35.7008 63.7839 36.2424 63.8284 36.6136C63.8731 36.9846 63.9623 37.311 64.0959 37.5931C64.3929 38.2164 64.8312 38.5281 65.4106 38.5281C65.99 38.5281 66.5617 38.3277 67.1263 37.9271C67.6908 37.5114 68.285 36.9474 68.9089 36.235C69.5327 35.5226 70.1568 34.6841 70.7806 33.7195C71.4045 32.7548 71.9987 31.7159 72.5632 30.6029C73.811 28.1392 74.6875 25.7868 75.1926 23.5458C75.1182 23.1303 74.8657 22.7072 74.435 22.2769C73.5883 21.4607 72.8232 21.0525 72.1398 21.0525C71.4566 21.0525 70.7732 21.2677 70.0899 21.6981C69.4065 22.1137 68.753 22.685 68.1291 23.4122C67.5201 24.1246 66.9481 24.9631 66.4132 25.928C65.8785 26.8778 65.4106 27.8869 65.0094 28.9555ZM82.9246 33.7417C82.9841 32.4507 83.1993 31.2187 83.5709 30.0463C83.9422 28.859 84.4398 27.7163 85.0637 26.6179C85.6876 25.5049 86.4154 24.4586 87.2475 23.4791C88.0942 22.4847 89.0077 21.6165 89.9882 20.8744C92.1123 19.2864 94.2589 18.4924 96.4278 18.4924C98.968 18.4924 100.661 19.5387 101.508 21.6313C101.805 22.3437 101.946 23.1898 101.932 24.1692C101.917 25.1339 101.731 26.0317 101.374 26.8628C101.018 27.6791 100.52 28.4287 99.8816 29.1112C99.2577 29.7792 98.5074 30.3802 97.6311 30.9146C96.7695 31.4488 95.8262 31.9015 94.8011 32.2725C92.6917 33.0145 90.4337 33.4005 88.0273 33.4301C87.9679 33.638 87.9307 33.9495 87.9158 34.3652C87.901 34.7806 87.9455 35.2481 88.0495 35.7675C88.1535 36.2722 88.3319 36.7249 88.5844 37.1256C89.1191 38.016 89.8916 38.4612 90.9017 38.4612C92.6249 38.4612 94.3035 37.9567 95.9376 36.9474C96.517 36.606 96.9848 36.2574 97.3413 35.9012C97.7128 35.53 98.0321 35.3446 98.2994 35.3446C98.5669 35.3446 98.7972 35.5078 98.9902 35.8344C99.1982 36.1461 99.3022 36.5023 99.3022 36.9029C99.3022 37.6896 99.0794 38.3721 98.6337 38.951C96.7621 40.821 93.9767 41.756 90.2778 41.756C88.0942 41.756 86.3413 41.1029 85.0192 39.7969C83.5336 38.3129 82.8354 36.2945 82.9246 33.7417ZM95.9376 21.4533C94.3779 21.4533 92.8775 22.5218 91.4366 24.659C90.2183 26.4992 89.2379 28.681 88.4952 31.2039C90.976 30.9516 93.13 29.9722 94.9571 28.2653C96.6357 26.6626 97.4751 25.1265 97.4751 23.6571C97.4751 22.1879 96.9625 21.4533 95.9376 21.4533ZM104.138 33.853C104.167 32.5618 104.368 31.2782 104.739 30.0018C105.125 28.7106 105.63 27.4937 106.254 26.3508C106.893 25.208 107.643 24.1544 108.505 23.1898C109.381 22.225 110.332 21.3939 111.357 20.6963C113.496 19.2271 115.747 18.4924 118.109 18.4924C120.545 18.4924 122.201 19.4645 123.078 21.4087C123.39 22.1063 123.531 22.9003 123.501 23.7908C123.486 24.6664 123.345 25.4753 123.078 26.2173C122.81 26.9445 122.476 27.5976 122.075 28.1764C121.169 29.4822 120.255 30.1353 119.334 30.1353C118.309 30.1353 117.551 29.8534 117.061 29.2894C116.631 28.7997 116.497 28.2283 116.66 27.5752C116.705 27.3823 116.838 27.2116 117.061 27.0632C117.284 26.9 117.567 26.6477 117.908 26.3064C118.874 25.2971 119.379 24.1172 119.423 22.7667C119.453 21.8465 118.889 21.3865 117.73 21.3865C116.482 21.3865 115.175 22.084 113.808 23.4791C111.818 25.5123 110.414 28.1169 109.597 31.293C108.884 34.0534 109.017 36.0718 109.998 37.3482C110.577 38.0902 111.364 38.4612 112.36 38.4612C114.038 38.4612 115.658 37.8676 117.217 36.6803C117.693 36.3093 118.079 35.9309 118.376 35.5451C118.673 35.159 118.948 34.9662 119.2 34.9662C119.453 34.9662 119.661 35.0924 119.824 35.3446C120.003 35.5821 120.092 35.8936 120.092 36.2797C120.092 37.1552 119.698 38.016 118.911 38.8621C116.891 40.7914 114.462 41.756 111.625 41.756C109.203 41.756 107.331 41.0659 106.009 39.6856C104.702 38.3203 104.078 36.3762 104.138 33.853ZM142.686 35.6117C142.686 36.9772 143.169 37.6598 144.135 37.6598C144.803 37.6598 145.353 37.5559 145.783 37.3482C146.229 37.1404 146.526 37.0365 146.675 37.0365C146.987 37.0365 147.143 37.1999 147.143 37.5262C147.143 38.8026 146.474 39.9008 145.137 40.821C143.726 41.7857 142.285 42.0231 140.814 41.5334C139.849 41.192 139.136 40.4574 138.675 39.3294C138.452 38.7508 138.341 38.2238 138.341 37.7489C138.341 36.9772 138.415 36.1609 138.564 35.3002C137.183 38.1199 135.467 40.0642 133.417 41.1328C132.6 41.5482 131.731 41.756 130.81 41.756C129.889 41.756 129.087 41.5704 128.403 41.1994C127.735 40.8136 127.163 40.2868 126.687 39.6189C125.722 38.2238 125.284 36.4725 125.373 34.3652C125.462 31.7233 126.242 29.1337 127.712 26.5957C129.064 24.2211 130.773 22.2844 132.837 20.7854C134.902 19.2568 136.833 18.4924 138.631 18.4924C140.428 18.4924 141.877 19.3161 142.976 20.9635C144.001 19.3161 144.907 18.4924 145.694 18.4924C146.541 18.4924 147.18 18.6483 147.611 18.9599C148.428 19.5536 148.717 20.073 148.48 20.5183C144.751 28.1466 142.835 32.8958 142.731 34.7658C142.701 35.0329 142.686 35.315 142.686 35.6117ZM130.319 35.7008C130.319 37.4818 130.891 38.3721 132.035 38.3721C132.912 38.3721 133.989 37.6301 135.266 36.1461C137.138 33.9643 138.794 31.0259 140.235 27.3303C140.696 26.1728 141.082 25.0152 141.394 23.8575C141.335 22.8484 140.911 22.1063 140.124 21.6313C139.856 21.4681 139.455 21.3865 138.92 21.3865C138.401 21.3865 137.784 21.5794 137.071 21.9653C136.373 22.3511 135.69 22.878 135.021 23.5458C134.367 24.2137 133.751 25.0078 133.172 25.928C132.607 26.8331 132.109 27.82 131.679 28.8888C130.773 31.1743 130.319 33.445 130.319 35.7008ZM151.31 40.6428C150.938 40.257 150.634 39.7673 150.396 39.1736C150.173 38.5652 150.062 37.8676 150.062 37.0809C150.062 36.2797 150.24 35.2111 150.597 33.8754C150.968 32.5396 151.436 31.0183 152 29.3116L153.872 23.7684C156.531 16.0511 158.069 10.0849 158.485 5.86999C158.618 4.62333 159.227 4 160.312 4C160.995 4 161.56 4.16325 162.005 4.48976C162.867 5.14277 163.283 5.86999 163.253 6.67142C163.223 7.47283 163.082 8.45236 162.83 9.60997C162.577 10.7527 162.25 12.0068 161.849 13.3722C161.448 14.7228 160.988 16.1549 160.468 17.6687L157.393 26.707C155.625 31.842 154.741 35.159 154.741 36.6581C154.741 37.4595 155.068 37.8602 155.722 37.8602C156.345 37.8602 156.91 37.7266 157.415 37.4595C157.935 37.1923 158.269 37.0587 158.418 37.0587C158.73 37.0587 158.886 37.2147 158.886 37.5262C158.886 38.8471 158.21 39.9529 156.858 40.8432C155.952 41.4517 155.12 41.756 154.362 41.756C153.62 41.756 153.018 41.6669 152.557 41.4889C152.097 41.3108 151.681 41.0288 151.31 40.6428ZM164.055 40.6428C163.684 40.257 163.379 39.7673 163.142 39.1736C162.919 38.5652 162.807 37.8676 162.807 37.0809C162.807 36.2797 162.986 35.2111 163.342 33.8754C163.713 32.5396 164.181 31.0183 164.746 29.3116L166.618 23.7684C169.277 16.0511 170.814 10.0849 171.23 5.86999C171.364 4.62333 171.973 4 173.057 4C173.741 4 174.305 4.16325 174.751 4.48976C175.612 5.14277 176.028 5.86999 175.999 6.67142C175.969 7.47283 175.828 8.45236 175.575 9.60997C175.323 10.7527 174.996 12.0068 174.595 13.3722C174.194 14.7228 173.733 16.1549 173.213 17.6687L170.138 26.707C168.37 31.842 167.487 35.159 167.487 36.6581C167.487 37.4595 167.813 37.8602 168.467 37.8602C169.091 37.8602 169.656 37.7266 170.161 37.4595C170.681 37.1923 171.015 37.0587 171.163 37.0587C171.475 37.0587 171.631 37.2147 171.631 37.5262C171.631 38.8471 170.955 39.9529 169.603 40.8432C168.697 41.4517 167.865 41.756 167.108 41.756C166.365 41.756 165.763 41.6669 165.303 41.4889C164.842 41.3108 164.427 41.0288 164.055 40.6428Z" fill="#202532"/>
</svg>
